<!-- Generated by IcoMoon.io -->
<svg version="1.1" xmlns="http://www.w3.org/2000/svg" width="1024" height="1024" viewBox="0 0 1024 1024">
<title>Group-90-1</title>
<g id="icomoon-ignore">
</g>
<path fill="#fef0f0" d="M224 0h576c123.712 0 224 100.288 224 224v576c0 123.712-100.288 224-224 224h-576c-123.712 0-224-100.288-224-224v-576c0-123.712 100.288-224 224-224z"></path>
<path fill="#ff8585" d="M722.72 391.136c-7.536-17.075-17.762-31.627-30.303-43.808l-0.033-0.032c-25.61-24.806-60.566-40.096-99.093-40.096-0.116 0-0.233 0-0.349 0h0.018c-0.014 0-0.030 0-0.047 0-33.954 0-65.15 11.809-89.704 31.545l0.279-0.217c-24.271-19.515-55.46-31.324-89.407-31.328h-0.001c-0.098 0-0.215 0-0.331 0-38.527 0-73.483 15.29-99.131 40.133l0.038-0.036c-12.928 12.48-23.232 27.392-30.368 43.84-7.078 15.847-11.2 34.342-11.2 53.8 0 0.031 0 0.062 0 0.093v-0.005c0 17.632 3.648 36 10.848 54.688 6.016 15.616 14.656 31.808 25.696 48.16 17.504 25.888 41.568 52.864 71.424 80.224 30.039 27.456 62.887 53.106 97.641 76.107l2.967 1.845 12.64 8.064c5.6 3.52 12.8 3.52 18.4 0l12.64-8.064c37.72-24.898 70.565-50.545 101.245-78.525l-0.637 0.573c29.856-27.36 53.92-54.336 71.424-80.224 9.697-13.883 18.326-29.742 25.118-46.542l0.578-1.618c6.642-16.176 10.595-34.94 10.815-54.6l0.001-0.088c0.001-0.14 0.001-0.306 0.001-0.472 0-19.331-4.099-37.706-11.475-54.301l0.338 0.852z"></path>
</svg>
